<?xml version="1.0" encoding="UTF-8"?>
<svg width="16px" height="10px" viewBox="0 0 16 10" version="1.1" xmlns="http://www.w3.org/2000/svg" xmlns:xlink="http://www.w3.org/1999/xlink">
    <!-- Generator: Sketch 41 (35326) - http://www.bohemiancoding.com/sketch -->
    <title>Shape</title>
    <desc>Created with Sketch.</desc>
    <defs></defs>
    <g id="About" stroke="none" stroke-width="1" fill="none" fill-rule="evenodd">
        <g transform="translate(-1274.000000, -3358.000000)" id="FOOTER" fill="#F2F6F7">
            <g transform="translate(-64.000000, 3047.000000)">
                <path d="M1343.00049,315.285293 L1343.00049,316.999607 L1345.83967,316.999607 C1345.72571,317.736418 1344.98202,319.157972 1343.00344,319.157972 C1341.29698,319.157972 1339.90392,317.743295 1339.90392,315.999509 C1339.90392,314.255723 1341.29404,312.841046 1343.00049,312.841046 C1343.97308,312.841046 1344.62344,313.255625 1344.99479,313.613224 L1346.35249,312.306612 C1345.48109,311.491208 1344.35131,311 1343.00246,311 C1340.23499,310.999018 1338,313.233029 1338,315.999509 C1338,318.765989 1340.23598,321 1343.00049,321 C1345.88879,321 1347.80253,318.971314 1347.80253,316.113469 C1347.80253,315.785343 1347.76717,315.533844 1347.72394,315.285293 L1343.00049,315.285293 L1343.00049,315.285293 Z M1353.71864,315.285293 L1352.28922,315.285293 L1352.28922,313.85588 L1350.85981,313.85588 L1350.85981,315.285293 L1349.43138,315.285293 L1349.43138,316.713724 L1350.86079,316.713724 L1350.86079,318.143138 L1352.2902,318.143138 L1352.2902,316.713724 L1353.71864,316.713724 L1353.71864,315.285293 Z" id="Shape"></path>
            </g>
        </g>
    </g>
</svg>