<?xml version="1.0" encoding="UTF-8"?>
<svg width="10px" height="10px" viewBox="0 0 10 10" version="1.1" xmlns="http://www.w3.org/2000/svg" xmlns:xlink="http://www.w3.org/1999/xlink">
    <!-- Generator: Sketch 41 (35326) - http://www.bohemiancoding.com/sketch -->
    <title>Shape</title>
    <desc>Created with Sketch.</desc>
    <defs></defs>
    <g id="About" stroke="none" stroke-width="1" fill="none" fill-rule="evenodd">
        <g transform="translate(-1121.000000, -3358.000000)" id="FOOTER" fill="#F2F6F7">
            <g transform="translate(-64.000000, 3047.000000)">
                <path d="M1194.44812,311 L1185.55188,311 C1185.24688,311 1185,311.246875 1185,311.551875 L1185,320.448125 C1185,320.753125 1185.24688,321 1185.55188,321 L1190.34125,321 L1190.34125,317.1275 L1189.0375,317.1275 L1189.0375,315.61875 L1190.34125,315.61875 L1190.34125,314.504375 C1190.34125,313.213125 1191.13,312.510625 1192.2825,312.510625 C1192.83437,312.510625 1193.30875,312.550625 1193.44688,312.569375 L1193.44688,313.919375 L1192.64687,313.919375 C1192.02187,313.919375 1191.9,314.216875 1191.9,314.654375 L1191.9,315.616875 L1193.39375,315.616875 L1193.2,317.126875 L1191.9,317.126875 L1191.9,321 L1194.44812,321 C1194.75312,321 1195,320.753125 1195,320.448125 L1195,311.551875 C1195,311.246875 1194.75312,311 1194.44812,311" id="Shape"></path>
            </g>
        </g>
    </g>
</svg>