<?xml version="1.0" encoding="UTF-8"?>
<svg width="19px" height="19px" viewBox="0 0 19 19" version="1.1" xmlns="http://www.w3.org/2000/svg" xmlns:xlink="http://www.w3.org/1999/xlink">
    <!-- Generator: Sketch 41 (35326) - http://www.bohemiancoding.com/sketch -->
    <title>Shape</title>
    <desc>Created with Sketch.</desc>
    <defs></defs>
    <g id="Blog" stroke="none" stroke-width="1" fill="none" fill-rule="evenodd">
        <g transform="translate(-986.000000, -510.000000)" id="SIDEBAR" fill="#0C5FAF">
            <g transform="translate(970.000000, 499.000000)">
                <g id="SEARCH">
                    <path d="M29.2146939,22.6289307 L28.3795253,22.6289307 L28.0835161,22.3434933 C29.1195482,21.1383132 29.7432817,19.5736934 29.7432817,17.8716409 C29.7432817,14.0763808 26.666901,11 22.8716409,11 C19.0763808,11 16,14.0763808 16,17.8716409 C16,21.666901 19.0763808,24.7432817 22.8716409,24.7432817 C24.5736934,24.7432817 26.1383132,24.1195482 27.3434933,23.0835161 L27.6289307,23.3795253 L27.6289307,24.2146939 L32.9148083,29.4899998 L34.4899998,27.9148083 L29.2146939,22.6289307 L29.2146939,22.6289307 Z M22.8716409,22.6289307 C20.2392738,22.6289307 18.114351,20.5040079 18.114351,17.8716409 C18.114351,15.2392738 20.2392738,13.114351 22.8716409,13.114351 C25.5040079,13.114351 27.6289307,15.2392738 27.6289307,17.8716409 C27.6289307,20.5040079 25.5040079,22.6289307 22.8716409,22.6289307 L22.8716409,22.6289307 Z" id="Shape"></path>
                </g>
            </g>
        </g>
    </g>
</svg>