<?xml version="1.0" encoding="UTF-8"?>
<svg width="15px" height="10px" viewBox="0 0 15 10" version="1.1" xmlns="http://www.w3.org/2000/svg" xmlns:xlink="http://www.w3.org/1999/xlink">
    <!-- Generator: Sketch 41 (35326) - http://www.bohemiancoding.com/sketch -->
    <title>Shape</title>
    <desc>Created with Sketch.</desc>
    <defs></defs>
    <g id="About" stroke="none" stroke-width="1" fill="none" fill-rule="evenodd">
        <g transform="translate(-1235.000000, -3358.000000)" id="FOOTER" fill="#F2F6F7">
            <g transform="translate(-64.000000, 3047.000000)">
                <path d="M1299,315.442577 C1299,314.297646 1299.14157,313.150947 1299.14157,313.150947 C1299.14157,313.150947 1299.2796,312.177668 1299.7043,311.74677 C1300.24226,311.183153 1300.9501,311.200849 1301.26509,311.141568 C1302.39763,311.031853 1306.07839,311 1306.07839,311 C1306.07839,311 1309.05309,311.003539 1311.03327,311.146877 C1311.3111,311.180499 1311.91453,311.182269 1312.45249,311.74677 C1312.87719,312.176783 1313.01522,313.151832 1313.01522,313.151832 C1313.01522,313.151832 1313.15679,314.296762 1313.15679,315.443461 L1313.15679,316.556539 C1313.15679,317.703238 1313.01522,318.848168 1313.01522,318.848168 C1313.01522,318.848168 1312.87719,319.823217 1312.45249,320.25323 C1311.91453,320.817731 1311.3111,320.819501 1311.03327,320.853123 C1309.05309,320.996461 1306.07839,321 1306.07839,321 C1306.07839,321 1302.39763,320.967262 1301.26509,320.858432 C1300.9501,320.799151 1300.24226,320.816847 1299.7043,320.25323 C1299.2796,319.822332 1299.14157,318.849053 1299.14157,318.849053 C1299.14157,318.849053 1299,317.703238 1299,316.557423 L1299,315.442577 L1299,315.442577 Z M1306.61671,317.858078 L1306.61671,313.880906 L1310.44169,315.876128 L1306.61936,317.858078 L1306.61759,317.858078 L1306.61671,317.858078 Z" id="Shape"></path>
            </g>
        </g>
    </g>
</svg>