<?xml version="1.0" encoding="UTF-8"?>
<svg width="10px" height="10px" viewBox="0 0 10 10" version="1.1" xmlns="http://www.w3.org/2000/svg" xmlns:xlink="http://www.w3.org/1999/xlink">
    <!-- Generator: Sketch 41 (35326) - http://www.bohemiancoding.com/sketch -->
    <title>Shape</title>
    <desc>Created with Sketch.</desc>
    <defs></defs>
    <g id="About" stroke="none" stroke-width="1" fill="none" fill-rule="evenodd">
        <g transform="translate(-1198.000000, -3358.000000)" id="FOOTER" fill="#F2F6F7">
            <g transform="translate(-64.000000, 3047.000000)">
                <path d="M1266.99969,311 C1264.23861,311 1262,313.23861 1262,315.999688 C1262,318.118305 1263.31742,319.927567 1265.1773,320.655647 C1265.13355,320.260046 1265.09418,319.653209 1265.1948,319.221361 C1265.28604,318.830761 1265.78101,316.735892 1265.78101,316.735892 C1265.78101,316.735892 1265.63102,316.43591 1265.63102,315.993438 C1265.63102,315.299731 1266.03475,314.779139 1266.53597,314.779139 C1266.96281,314.779139 1267.16843,315.099744 1267.16843,315.48347 C1267.16843,315.912818 1266.89594,316.554028 1266.7547,317.148366 C1266.63596,317.64646 1267.00469,318.051434 1267.49528,318.051434 C1268.38273,318.051434 1269.06643,317.115243 1269.06643,315.762827 C1269.06643,314.566027 1268.20649,313.729204 1266.97781,313.729204 C1265.5554,313.729204 1264.7217,314.796013 1264.7217,315.899069 C1264.7217,316.328417 1264.88607,316.789013 1265.09231,317.039623 C1265.13355,317.089619 1265.13918,317.133367 1265.12793,317.183364 C1265.09043,317.340854 1265.00544,317.680832 1264.98856,317.750203 C1264.96669,317.841447 1264.91669,317.861446 1264.82107,317.817074 C1264.19736,317.526467 1263.80614,316.613399 1263.80614,315.879695 C1263.80614,314.302294 1264.95232,312.854884 1267.11031,312.854884 C1268.84395,312.854884 1270.19261,314.090432 1270.19261,315.742204 C1270.19261,317.465221 1269.10518,318.852634 1267.59715,318.852634 C1267.09093,318.852634 1266.61471,318.588901 1266.4516,318.27767 L1266.13912,319.466346 C1266.02662,319.900694 1265.72227,320.445035 1265.51791,320.776889 C1265.98663,320.92188 1266.48347,321 1266.99906,321 C1269.75952,321 1271.99875,318.76139 1271.99875,316.000312 C1271.99875,313.239235 1269.75952,311.000625 1266.99906,311.000625 L1266.99969,311 Z" id="Shape"></path>
            </g>
        </g>
    </g>
</svg>