<?xml version="1.0" encoding="UTF-8"?>
<svg width="13px" height="10px" viewBox="0 0 13 10" version="1.1" xmlns="http://www.w3.org/2000/svg" xmlns:xlink="http://www.w3.org/1999/xlink">
    <!-- Generator: Sketch 41 (35326) - http://www.bohemiancoding.com/sketch -->
    <title>Shape</title>
    <desc>Created with Sketch.</desc>
    <defs></defs>
    <g id="About" stroke="none" stroke-width="1" fill="none" fill-rule="evenodd">
        <g transform="translate(-1159.000000, -3358.000000)" id="FOOTER" fill="#F2F6F7">
            <g transform="translate(-64.000000, 3047.000000)">
                <path d="M1235.30408,312.184342 C1234.85034,312.384296 1234.36584,312.520418 1233.85442,312.581943 C1234.37507,312.268938 1234.77574,311.774437 1234.96416,311.185342 C1234.47658,311.473737 1233.93594,311.683688 1233.36069,311.796739 C1232.90079,311.306083 1232.24556,311 1231.51803,311 C1230.12451,311 1228.994,312.12897 1228.994,313.522495 C1228.994,313.720911 1229.01707,313.914712 1229.05937,314.099285 C1226.96139,313.993155 1225.10105,312.988772 1223.85596,311.46297 C1223.63755,311.834423 1223.5145,312.268169 1223.5145,312.731908 C1223.5145,313.608629 1223.96055,314.379989 1224.63731,314.832962 C1224.22356,314.819888 1223.83365,314.706068 1223.49373,314.51765 L1223.49373,314.548412 C1223.49373,315.771207 1224.36276,316.792509 1225.51865,317.024764 C1225.30639,317.081673 1225.08337,317.112436 1224.85342,317.112436 C1224.69192,317.112436 1224.53349,317.097055 1224.37891,317.067831 C1224.70038,318.070676 1225.63247,318.800508 1226.7376,318.821272 C1225.87318,319.498039 1224.7842,319.901023 1223.60217,319.901023 C1223.39837,319.901023 1223.19765,319.889487 1223,319.866415 C1224.11743,320.581635 1225.44405,321 1226.86988,321 C1231.51342,321 1234.05283,317.154734 1234.05283,313.81858 C1234.05283,313.708606 1234.04976,313.600169 1234.04514,313.491733 C1234.53734,313.135661 1234.96647,312.691917 1235.30485,312.184342 L1235.30408,312.184342 Z" id="Shape"></path>
            </g>
        </g>
    </g>
</svg>