<?xml version="1.0" encoding="UTF-8"?>
<svg width="205px" height="50px" viewBox="0 0 205 50" version="1.1" xmlns="http://www.w3.org/2000/svg" xmlns:xlink="http://www.w3.org/1999/xlink">
    <!-- Generator: Sketch 41 (35326) - http://www.bohemiancoding.com/sketch -->
    <title>LOGO</title>
    <desc>Created with Sketch.</desc>
    <defs></defs>
    <g id="Home" stroke="none" stroke-width="1" fill="none" fill-rule="evenodd">
        <g transform="translate(-30.000000, -12.000000)" id="HEADER-(inverted)">
            <g transform="translate(-19.000000, 0.000000)">
                <g id="LOGO" transform="translate(49.000000, 12.000000)">
                    <path d="M72.3724021,27.406145 L72.3724021,33.8101672 C72.3724021,34.9239102 71.8553071,35.4410052 70.7415641,35.4410052 L69.7869273,35.4410052 C68.6731843,35.4410052 68.1560893,34.9239102 68.1560893,33.8101672 L68.1560893,16.2289385 C68.1560893,15.1151955 68.6731843,14.5981005 69.7869273,14.5981005 L70.6620111,14.5981005 C71.7359775,14.5981005 72.2530725,15.1151955 72.2530725,16.2289385 L72.2530725,20.4850278 L76.4296087,20.4850278 L76.4296087,15.9902792 C76.4296087,12.5694972 74.7589942,10.8591061 71.2984356,10.8591061 L69.0709496,10.8591061 C65.610391,10.8591061 63.9,12.5694972 63.9,16.0300558 L63.9,34.0090499 C63.9,37.4696085 65.610391,39.1799995 69.0709496,39.1799995 L71.3382122,39.1799995 C74.7987708,39.1799995 76.5091618,37.4696085 76.5091618,34.0090499 L76.5091618,23.7467037 L70.1449161,23.7467037 L70.1449161,27.406145 L72.3724021,27.406145 Z M79.3008853,35.4807817 C79.3008853,37.8275973 80.4544049,39.1799995 82.7614439,39.1799995 L82.8012205,39.1799995 C84.471835,39.1799995 85.5458014,38.4242454 86.5799914,37.5491616 L86.5799914,38.9413403 L90.5178684,38.9413403 L90.5178684,21.7181004 C90.5178684,18.496201 88.8870304,16.865363 85.665131,16.865363 L84.3922819,16.865363 C81.1703825,16.865363 79.5395445,18.496201 79.5395445,21.7181004 L79.5395445,24.5422344 L83.3183154,24.5422344 L83.3183154,21.83743 C83.3183154,20.8827931 83.8354104,20.3656982 84.7900473,20.3656982 L85.068483,20.3656982 C86.0628964,20.3656982 86.5402148,20.8827931 86.5402148,21.83743 L86.5402148,25.2184355 L82.3636786,26.6503908 C80.096416,27.406145 79.3008853,28.4801114 79.3008853,31.0655863 L79.3008853,35.4807817 Z M84.471835,35.5603348 C83.5967512,35.5603348 83.1989858,35.1625694 83.1989858,34.3272622 L83.1989858,31.2246924 C83.1989858,30.230279 83.4774216,29.8325137 84.3525054,29.4347483 L86.5402148,28.5994411 L86.5402148,34.9239102 C85.8242372,35.3614521 85.1878126,35.5603348 84.471835,35.5603348 L84.471835,35.5603348 Z M98.0827762,20.6043574 L100.190933,20.6043574 L100.190933,17.1040222 L98.0827762,17.1040222 L98.0827762,13.524134 L94.0653461,13.524134 L94.0653461,17.1040222 L92.6333908,17.1040222 L92.6333908,20.6043574 L94.0653461,20.6043574 L94.0653461,38.9413403 L98.0827762,38.9413403 L98.0827762,20.6043574 Z M102.386008,38.9413403 L106.403438,38.9413403 L106.403438,21.2010054 C107.159192,20.7634635 107.795617,20.5248043 108.551371,20.5248043 C109.466231,20.5248043 109.863997,20.9225697 109.863997,21.7976535 L109.863997,38.9413403 L113.881427,38.9413403 L113.881427,20.6043574 C113.881427,18.1779887 112.688131,16.865363 110.381092,16.865363 L110.182209,16.865363 C108.511595,16.865363 107.397852,17.6211172 106.403438,18.5359775 L106.403438,10.7 L102.386008,10.7 L102.386008,38.9413403 Z M127.92991,29.5938544 L127.92991,21.7181004 C127.92991,18.496201 126.299072,16.865363 123.077173,16.865363 L121.525888,16.865363 C118.303988,16.865363 116.67315,18.496201 116.67315,21.7181004 L116.67315,34.3272622 C116.67315,37.5491616 118.303988,39.1799995 121.525888,39.1799995 L123.077173,39.1799995 C126.299072,39.1799995 127.92991,37.5491616 127.92991,34.3272622 L127.92991,31.8213404 L124.071586,31.8213404 L124.071586,34.1283795 C124.071586,35.1227929 123.594268,35.6001113 122.599854,35.6001113 L122.082759,35.6001113 C121.128122,35.6001113 120.650804,35.1227929 120.650804,34.1283795 L120.650804,29.5938544 L127.92991,29.5938544 Z M120.650804,21.8772065 C120.650804,20.8827931 121.128122,20.4054747 122.082759,20.4054747 L122.520301,20.4054747 C123.514715,20.4054747 123.992033,20.8827931 123.992033,21.8772065 L123.992033,26.1730724 L120.650804,26.1730724 L120.650804,21.8772065 Z M130.721634,38.9413403 L134.739064,38.9413403 L134.739064,22.6329607 C135.574371,21.8772065 136.608561,21.4794412 138.080293,21.3601116 L138.080293,16.9051396 C136.489231,16.9051396 135.614147,17.7006703 134.699287,19.4508378 L134.699287,17.1040222 L130.721634,17.1040222 L130.721634,38.9413403 Z M150.060396,24.6217875 C151.611681,24.064916 152.446988,22.8318434 152.446988,20.3656982 L152.446988,16.268715 C152.446988,12.8081564 150.736597,11.0977654 147.276038,11.0977654 L140.394698,11.0977654 L140.394698,38.9413403 L147.355591,38.9413403 C150.81615,38.9413403 152.526541,37.2309493 152.526541,33.7703907 L152.526541,28.6392176 C152.526541,26.3719551 151.73101,25.178659 150.060396,24.6217875 L150.060396,24.6217875 Z M148.230675,16.4278211 L148.230675,21.2010054 C148.230675,22.3943015 147.673804,22.951173 146.480508,22.951173 L144.611011,22.951173 L144.611011,14.8367597 L146.639614,14.8367597 C147.71358,14.8367597 148.230675,15.3538547 148.230675,16.4278211 L148.230675,16.4278211 Z M144.611011,26.5708377 L146.560061,26.5708377 C147.753357,26.5708377 148.310228,27.1277092 148.310228,28.3210053 L148.310228,33.6112845 C148.310228,34.685251 147.793133,35.202346 146.719167,35.202346 L144.611011,35.202346 L144.611011,26.5708377 Z M161.404075,20.4850278 C162.398488,20.4850278 162.875806,20.9623462 162.875806,21.9567596 L162.875806,34.088603 C162.875806,35.0830164 162.398488,35.5603348 161.404075,35.5603348 L160.76765,35.5603348 C159.813013,35.5603348 159.335695,35.0830164 159.335695,34.088603 L159.335695,21.9567596 C159.335695,20.9623462 159.813013,20.4850278 160.76765,20.4850278 L161.404075,20.4850278 Z M162.040499,39.1799995 C165.262399,39.1799995 166.893237,37.5491616 166.893237,34.3272622 L166.893237,21.7181004 C166.893237,18.496201 165.262399,16.865363 162.040499,16.865363 L160.171002,16.865363 C156.949103,16.865363 155.318265,18.496201 155.318265,21.7181004 L155.318265,34.3272622 C155.318265,37.5491616 156.949103,39.1799995 160.171002,39.1799995 L162.040499,39.1799995 Z M169.56563,35.4807817 C169.56563,37.8275973 170.71915,39.1799995 173.026189,39.1799995 L173.065966,39.1799995 C174.73658,39.1799995 175.810547,38.4242454 176.844736,37.5491616 L176.844736,38.9413403 L180.782614,38.9413403 L180.782614,21.7181004 C180.782614,18.496201 179.151776,16.865363 175.929876,16.865363 L174.657027,16.865363 C171.435128,16.865363 169.80429,18.496201 169.80429,21.7181004 L169.80429,24.5422344 L173.583061,24.5422344 L173.583061,21.83743 C173.583061,20.8827931 174.100156,20.3656982 175.054792,20.3656982 L175.333228,20.3656982 C176.327642,20.3656982 176.80496,20.8827931 176.80496,21.83743 L176.80496,25.2184355 L172.628424,26.6503908 C170.361161,27.406145 169.56563,28.4801114 169.56563,31.0655863 L169.56563,35.4807817 Z M174.73658,35.5603348 C173.861496,35.5603348 173.463731,35.1625694 173.463731,34.3272622 L173.463731,31.2246924 C173.463731,30.230279 173.742167,29.8325137 174.61725,29.4347483 L176.80496,28.5994411 L176.80496,34.9239102 C176.088982,35.3614521 175.452558,35.5603348 174.73658,35.5603348 L174.73658,35.5603348 Z M183.65389,38.9413403 L187.67132,38.9413403 L187.67132,22.6329607 C188.506627,21.8772065 189.540817,21.4794412 191.012549,21.3601116 L191.012549,16.9051396 C189.421488,16.9051396 188.546404,17.7006703 187.631544,19.4508378 L187.631544,17.1040222 L183.65389,17.1040222 L183.65389,38.9413403 Z M204.464384,10.7 L200.446954,10.7 L200.446954,18.4166479 C199.532094,17.6211172 198.378574,16.865363 196.70796,16.865363 L196.668183,16.865363 C194.202038,16.865363 192.889412,18.4166479 192.889412,20.9623462 L192.889412,35.0830164 C192.889412,37.6287147 194.202038,39.1799995 196.668183,39.1799995 L196.70796,39.1799995 C198.378574,39.1799995 199.57187,38.3446923 200.486731,37.4696085 L200.486731,38.9413403 L204.464384,38.9413403 L204.464384,10.7 Z M200.446954,34.8045806 C199.850306,35.2421225 199.134329,35.5205583 198.338798,35.5205583 C197.384161,35.5205583 196.906843,35.1227929 196.906843,34.168156 L196.906843,21.8772065 C196.906843,20.9225697 197.384161,20.5248043 198.338798,20.5248043 C199.134329,20.5248043 199.850306,20.8032401 200.446954,21.240782 L200.446954,34.8045806 Z" id="GatherBoard" fill="#FFFFFF"></path>
                    <path d="M25,50 C38.8071187,50 50,38.8071187 50,25 C50,11.1928813 38.8071187,0 25,0 C11.1928813,0 0,11.1928813 0,25 C0,38.8071187 11.1928813,50 25,50 Z M26.5440262,31.4046455 C26.5440262,31.894004 26.9407297,32.2907074 27.4300881,32.2907074 C27.5399892,32.2907074 27.7373899,32.2874174 28.0099639,32.2776826 C28.4595906,32.2616245 28.9594516,32.2327864 29.4973109,32.1879648 C31.0367515,32.0596781 32.577642,31.8285445 34.0246356,31.4667961 C35.9237088,30.9920278 37.5221263,30.3260205 38.7273778,29.4220819 C40.2336115,28.2924066 41.0754419,26.8192035 41.0754419,25.0249996 C41.0754419,21.7836673 38.9985663,19.7067918 35.6848429,18.6022173 C34.5728803,18.2315631 33.3920814,17.9954033 32.2129898,17.8643931 C31.8012378,17.8186429 31.4182986,17.7891861 31.0732449,17.7727549 C30.8624644,17.7627178 30.7082953,17.7592918 30.6199111,17.7592918 C30.1305526,17.7592918 29.7338492,18.1559952 29.7338492,18.6453537 C29.7338492,19.1347122 30.1305526,19.5314157 30.6199111,19.5314157 C30.632141,19.5314157 30.6617981,19.5317345 30.7076953,19.5327545 C30.7879396,19.5345377 30.8820897,19.5377842 30.9889535,19.542873 C31.2980627,19.5575925 31.6440479,19.5842067 32.0172914,19.6256782 C33.0810441,19.743873 34.1430894,19.956282 35.1244481,20.2834016 C37.7916427,21.1724665 39.303318,22.6841418 39.303318,25.0249996 C39.303318,27.2847594 37.2319127,28.8383134 33.5948325,29.7475834 C32.250731,30.0836088 30.8011625,30.3010441 29.350144,30.4219623 C28.8413428,30.4643624 28.3161501,30.5185836 28.3161501,30.5185836 L28.3161501,5.88606193 C28.3161501,5.39670344 27.9194466,5 27.4300881,5 C26.9407297,5 26.5440262,5.39670344 26.5440262,5.88606193 L26.5440262,31.4046455 Z M23.5314157,18.6453537 C23.5314157,18.1559952 23.1347122,17.7592918 22.6453537,17.7592918 C22.5354526,17.7592918 22.338052,17.7625818 22.065478,17.7723166 C21.6158512,17.7883747 21.1159903,17.8172128 20.5781309,17.8620344 C19.0386904,17.9903211 17.4977998,18.2214547 16.0508062,18.5832031 C14.1517331,19.0579714 12.5533155,19.7239787 11.3480641,20.6279173 C9.84183038,21.7575926 9,23.2307958 9,25.0249996 C9,28.2663319 11.0768755,30.3432075 14.390599,31.4477819 C15.5025615,31.8184361 16.6833605,32.0545959 17.8624521,32.1856061 C18.2742041,32.2313563 18.6571433,32.2608132 19.002197,32.2772443 C19.2129775,32.2872815 19.3671466,32.2907074 19.4555308,32.2907074 C19.9448893,32.2907074 20.3415927,31.894004 20.3415927,31.4046455 C20.3415927,30.915287 19.9448893,30.5185836 19.4555308,30.5185836 C19.4433009,30.5185836 19.4136437,30.5182647 19.3677466,30.5172448 C19.2875022,30.5154615 19.1933521,30.512215 19.0864883,30.5071262 C18.7773791,30.4924068 18.4313939,30.4657925 18.0581504,30.424321 C16.9943978,30.3061263 15.9323525,30.0937172 14.9509937,29.7665976 C12.2837991,28.8775328 10.7721239,27.3658575 10.7721239,25.0249996 C10.7721239,22.7652398 12.8435291,21.2116859 16.4806094,20.3024158 C17.8247109,19.9663904 19.2742794,19.7489551 20.7252978,19.6280369 C21.2340991,19.5856368 21.7592918,19.5433113 21.7592918,19.5433113 L21.7592918,44.1639373 C21.7592918,44.6532958 22.1559952,45.0499992 22.6453537,45.0499992 C23.1347122,45.0499992 23.5314157,44.6532958 23.5314157,44.1639373 L23.5314157,18.6453537 Z" id="Combined-Shape" fill="#91CAFF"></path>
                </g>
            </g>
        </g>
    </g>
</svg>